<?xml version="1.0" standalone="no"?>
<!DOCTYPE svg PUBLIC "-//W3C//DTD SVG 20010904//EN"
 "http://www.w3.org/TR/2001/REC-SVG-20010904/DTD/svg10.dtd">
<svg version="1.0" xmlns="http://www.w3.org/2000/svg"
 width="141.000000pt" height="141.000000pt" viewBox="0 0 141.000000 141.000000"
 preserveAspectRatio="xMidYMid meet">
<metadata>
Created by potrace 1.14, written by Peter Selinger 2001-2017
</metadata>
<g transform="translate(0.000000,141.000000) scale(0.100000,-0.100000)"
fill="#000000" stroke="none">
<path d="M351 1153 c-22 -19 -106 -243 -91 -243 5 0 12 5 15 10 8 13 61 13 87
-1 11 -6 35 -43 53 -82 56 -122 86 -188 131 -292 25 -55 49 -109 54 -120 5
-11 22 -49 38 -85 16 -36 36 -71 45 -79 22 -17 90 -19 109 -3 14 11 53 108 84
209 l13 41 -28 -15 c-32 -19 -74 -12 -98 16 -14 17 -65 122 -176 361 -91 198
-126 268 -141 283 -22 22 -68 22 -95 0z"/>
<path d="M863 1151 c-12 -11 -31 -51 -43 -88 -13 -37 -31 -90 -42 -118 -19
-48 -19 -49 0 -32 22 20 80 22 105 3 10 -8 53 -92 96 -187 43 -96 87 -194 98
-219 11 -25 39 -88 62 -141 34 -78 48 -100 75 -114 46 -25 99 -7 116 38 34 93
70 201 67 204 -2 1 -18 -3 -36 -10 -26 -10 -37 -9 -59 3 -31 17 -38 31 -202
385 -67 143 -130 268 -142 278 -27 23 -69 22 -95 -2z"/>
<path d="M32 645 c-23 -19 -32 -35 -32 -57 0 -39 144 -314 176 -334 25 -17 75
-12 93 10 9 10 91 229 91 242 0 3 -10 -2 -22 -10 -54 -38 -102 -10 -151 87
-33 65 -44 76 -89 83 -27 5 -41 1 -66 -21z"/>
</g>
</svg>
